<svg width="128" height="128" viewBox="0 0 128 128" fill="none" xmlns="http://www.w3.org/2000/svg">
  <defs>
    <linearGradient id="inventoryGradient" x1="16" y1="20" x2="112" y2="108" gradientUnits="userSpaceOnUse">
      <stop offset="0" stop-color="#6366F1"/>
      <stop offset="0.5" stop-color="#3B82F6"/>
      <stop offset="1" stop-color="#0EA5E9"/>
    </linearGradient>
    <linearGradient id="inventoryAccent" x1="20" y1="12" x2="92" y2="88" gradientUnits="userSpaceOnUse">
      <stop offset="0" stop-color="#FBBF24"/>
      <stop offset="1" stop-color="#F97316"/>
    </linearGradient>
    <clipPath id="inventoryClip">
      <rect x="16" y="20" width="96" height="92" rx="12"/>
    </clipPath>
  </defs>
  <g clip-path="url(#inventoryClip)">
    <rect x="16" y="20" width="96" height="92" rx="12" fill="url(#inventoryGradient)"/>
    <rect x="24" y="28" width="80" height="20" rx="6" fill="rgba(15, 23, 42, 0.18)"/>
    <rect x="24" y="56" width="80" height="18" rx="5" fill="rgba(15, 23, 42, 0.1)"/>
    <rect x="24" y="82" width="80" height="18" rx="5" fill="rgba(15, 23, 42, 0.1)"/>
    <rect x="32" y="60" width="28" height="10" rx="4" fill="#FFFFFF" fill-opacity="0.6"/>
    <rect x="32" y="86" width="36" height="10" rx="4" fill="#FFFFFF" fill-opacity="0.55"/>
    <rect x="72" y="60" width="24" height="10" rx="4" fill="#FFFFFF" fill-opacity="0.35"/>
    <rect x="76" y="86" width="20" height="10" rx="4" fill="#FFFFFF" fill-opacity="0.35"/>
    <rect x="32" y="32" width="24" height="10" rx="5" fill="#FFFFFF" fill-opacity="0.7"/>
    <rect x="62" y="32" width="16" height="10" rx="5" fill="#FFFFFF" fill-opacity="0.65"/>
    <rect x="82" y="32" width="14" height="10" rx="5" fill="#FFFFFF" fill-opacity="0.5"/>
    <g transform="translate(58 68)">
      <rect x="0" y="0" width="54" height="54" rx="12" fill="rgba(15, 23, 42, 0.12)"/>
      <path d="M12 34L22 44L42 22" stroke="url(#inventoryAccent)" stroke-width="6" stroke-linecap="round" stroke-linejoin="round"/>
      <rect x="14" y="8" width="26" height="8" rx="4" fill="#FFFFFF" fill-opacity="0.65"/>
    </g>
  </g>
  <rect x="16" y="20" width="96" height="92" rx="12" stroke="rgba(15, 23, 42, 0.16)" stroke-width="2"/>
</svg>
